<?xml version="1.0" encoding="UTF-8" standalone="no"?>
<svg
   xmlns:dc="http://purl.org/dc/elements/1.1/"
   xmlns:cc="http://creativecommons.org/ns#"
   xmlns:rdf="http://www.w3.org/1999/02/22-rdf-syntax-ns#"
   xmlns:svg="http://www.w3.org/2000/svg"
   xmlns="http://www.w3.org/2000/svg"
   xmlns:sodipodi="http://sodipodi.sourceforge.net/DTD/sodipodi-0.dtd"
   xmlns:inkscape="http://www.inkscape.org/namespaces/inkscape"
   version="1.1"
   id="Layer_1"
   x="0px"
   y="0px"
   viewBox="0 0 810.69496 465.21634"
   enable-background="new 0 0 1920 1920"
   xml:space="preserve"
   inkscape:version="0.48.4 r9939"
   width="100%"
   height="100%"
   sodipodi:docname="Birds-Silhouettes-Duck.svg"><metadata
     id="metadata37"><rdf:RDF><cc:Work
         rdf:about=""><dc:format>image/svg+xml</dc:format><dc:type
           rdf:resource="http://purl.org/dc/dcmitype/StillImage" /><dc:title></dc:title></cc:Work></rdf:RDF></metadata><defs
     id="defs35" /><sodipodi:namedview
     pagecolor="#ffffff"
     bordercolor="#666666"
     borderopacity="1"
     objecttolerance="10"
     gridtolerance="10"
     guidetolerance="10"
     inkscape:pageopacity="0"
     inkscape:pageshadow="2"
     inkscape:window-width="1855"
     inkscape:window-height="1056"
     id="namedview33"
     showgrid="false"
     units="in"
     fit-margin-top="0.25"
     fit-margin-left="0.25"
     fit-margin-right="0.25"
     fit-margin-bottom="0.25"
     inkscape:zoom="0.34766083"
     inkscape:cx="482.26948"
     inkscape:cy="908.1811"
     inkscape:window-x="65"
     inkscape:window-y="24"
     inkscape:window-maximized="1"
     inkscape:current-layer="Layer_1" /><path
     d="m 572.7424,27.385646 c 17.5,-6.8099 37.2,-5.9199 54.92,-0.38 15.89,4.8301 30.31,14.1901 41.37,26.5601 11.76,12.96 19.94,28.74 25.98,45.05 7.25,16.960004 22.21,29.200004 37.89,38.120004 14.92,8.87 32.31,13.11 46.2,23.7899 4.02,3.2101 8.25,7.15 8.9901,12.53 0.21,2.6899 -0.34,6.38 -3.28,7.41 -4.61,1.37 -9.49,0.4199 -14.11,-0.3101 -17.72,-3.4199 -34.59,-10.01 -51.68,-15.63 -20.09,-6.1799 -41.4,-10.1699 -62.42,-7.1599 -7.68,1.1299 -15.27,3.1699 -22.3,6.48 -8.8,4.37 -14.84,13.4199 -15.77,23.1699 -1.2,12.8501 1.8101,25.5701 3.65,38.2201 1.54,13.0699 7.34,25.13 13.65,36.5199 3.6,6.62 8.23,12.64 11.6,19.4 5.58,11.02 8.51,23.48 7.62,35.85 -0.6,6.7201 -0.68,13.52 -2.16,20.15 -2.7,13.2101 -7.6,25.86 -13.05,38.16 -6.96,15.33 -14.07,30.98 -25.34,43.71 -5.21,5.72 -11.43,11.0801 -19.02,13.22 -10.28,0.65 -20.61,0.1101 -30.86,-0.8799 -6.21,-0.1001 -12.14,-2.04 -18.22,-3.01 -33.08,-5.87 -66.88,-1.77 -99.49,4.9299 -28.2,4.91 -56.68,8.91 -85.34,9.3201 -37.23,-0.1801 -74.49,0.71 -111.68,-1.27 -23.12,-0.36 -46.24,-1.9 -69.19,-4.64 -12.1,-1.8201 -23.94,-5.14 -35.45,-9.27 -12.66,-4.29 -25.45,-9.49 -35.48,-18.58 -8.2,-7.4501 -16.88,-14.4401 -24.29,-22.7101 -4.18,-4.8099 -9.19,-8.8099 -13.33,-13.6499 -19.51,-22.17 -33.5,-48.3401 -49.59,-72.92 v -21.33 c 10.2,1.99 20.31,4.48 30.21,7.6699 9.94,2.8201 19.36,7.67 29.79,8.51 10.26,1.16 21.07,-1.6 28.95,-8.42 5.49,-4.83 10.34,-10.3199 15.74,-15.25 38.71,-36.99 84.01,-67.5099 134.01,-86.98 21.58,-7.64 44.4,-11.88 67.31,-12.0299 24.68,-0.3101 49.31,3.97 72.76,11.5699 12.46,4.1801 25.11,8.4399 36.07,15.87 17.31,11.29 32.58,25.35 47.52,39.54 11.1,10.1599 22.81,20.11 36.66,26.2999 6.57,2.74 14.26,4.89 21.21,2.3201 2.16,-2.64 4.97,-5.52 4.61,-9.2001 -0.3,-23.5399 -4.92,-47.2799 -15.48,-68.4299 -3.72,-7.8301 -9.01,-14.87 -12.02,-23.04 -7.98,-20.14 -6.94,-42.65 -2.07,-63.4 3.8,-17.159904 10.76,-33.649904 20.86,-48.049904 8.5099,-12.14 20.0899,-22.4799 34.0499,-27.83 z"
     id="path31"
     inkscape:connector-curvature="0"
     style="stroke:#000000;stroke-width:0.0938" /></svg>